<svg width="314" height="80" viewBox="0 0 314 80" fill="none" xmlns="http://www.w3.org/2000/svg">
<rect x="0.5" y="0.5" width="79" height="79" rx="11.5" fill="#F7F7F7" stroke="#D5D5D5"/>
<path d="M29.4091 54V51.9545L37.0909 43.5455C37.9924 42.5606 38.7348 41.7045 39.3182 40.9773C39.9015 40.2424 40.3333 39.553 40.6136 38.9091C40.9015 38.2576 41.0455 37.5758 41.0455 36.8636C41.0455 36.0455 40.8485 35.3371 40.4545 34.7386C40.0682 34.1402 39.5379 33.678 38.8636 33.3523C38.1894 33.0265 37.4318 32.8636 36.5909 32.8636C35.697 32.8636 34.9167 33.0492 34.25 33.4205C33.5909 33.7841 33.0795 34.2955 32.7159 34.9545C32.3598 35.6136 32.1818 36.3864 32.1818 37.2727H29.5C29.5 35.9091 29.8144 34.7121 30.4432 33.6818C31.072 32.6515 31.928 31.8485 33.0114 31.2727C34.1023 30.697 35.3258 30.4091 36.6818 30.4091C38.0455 30.4091 39.2538 30.697 40.3068 31.2727C41.3598 31.8485 42.1856 32.625 42.7841 33.6023C43.3826 34.5795 43.6818 35.6667 43.6818 36.8636C43.6818 37.7197 43.5265 38.5568 43.2159 39.375C42.9129 40.1856 42.3826 41.0909 41.625 42.0909C40.875 43.0833 39.8333 44.2955 38.5 45.7273L33.2727 51.3182V51.5H44.0909V54H29.4091Z" fill="black"/>
<rect x="116.5" y="0.5" width="79" height="79" rx="11.5" fill="#F7F7F7" stroke="#D5D5D5"/>
<path d="M144.864 49.2273V46.9091L155.091 30.7273H156.773V34.3182H155.636L147.909 46.5455V46.7273H161.682V49.2273H144.864ZM155.818 54V48.5227V47.4432V30.7273H158.5V54H155.818Z" fill="black"/>
<rect x="234" width="80" height="80" rx="12" fill="#F7F7F7"/>
<rect x="235" y="1" width="78" height="78" rx="11" stroke="#63ACF7" stroke-opacity="0.7" stroke-width="2"/>
<path d="M274.364 20.2273V58.5H272.091V20.2273H274.364Z" fill="black"/>
</svg>
